# xmcd
#
# Track frame offsets:
#	150
#	17397
#	37176
#	66459
#
# Disc length: 1126 seconds
#
# Revision: 0
# Processed by: cddbd v1.5.2PL0 Copyright (c) Steve Scherf et al.
# Submitted via: audiograbber 1.83.01
#
DISCID=30046404
DTITLE=Lucid - Lucid
DYEAR=2009
DGENRE=stoner rock
TTITLE0=Godspeed
TTITLE1=Shatter
TTITLE2=Black Sheep
TTITLE3=Black Eyed Woman
EXTD=
EXTT0=
EXTT1=
EXTT2=
EXTT3=
PLAYORDER=
